{"asset":{"version":"2.0","generator":"THREE.GLTFExporter r186"},"scenes":[{"name":"AuxScene","nodes":[0]}],"scene":0,"nodes":[{"name":"LED_red","extras":{"ledColor":"red","label":"赤 LED"},"children":[1,2,3]},{"matrix":[1,0,0,0,0,1,0,0,0,0,1,0,0,0.19,0,1],"name":"lens","mesh":0},{"name":"collar","mesh":1},{"name":"leads","children":[4,5]},{"matrix":[1,0,0,0,0,1,0,0,0,0,1,0,-0.12,-0.25,0,1],"name":"anode","mesh":2},{"matrix":[1,0,0,0,0,1,0,0,0,0,1,0,0.12,-0.2,0,1],"name":"cathode","mesh":3}],"bufferViews":[{"buffer":0,"byteOffset":0,"byteLength":3528,"target":34962,"byteStride":12},{"buffer":0,"byteOffset":3528,"byteLength":3528,"target":34962,"byteStride":12},{"buffer":0,"byteOffset":7056,"byteLength":2352,"target":34962,"byteStride":8},{"buffer":0,"byteOffset":9408,"byteLength":3120,"target":34963},{"buffer":0,"byteOffset":12528,"byteLength":1776,"target":34962,"byteStride":12},{"buffer":0,"byteOffset":14304,"byteLength":1776,"target":34962,"byteStride":12},{"buffer":0,"byteOffset":16080,"byteLength":1184,"target":34962,"byteStride":8},{"buffer":0,"byteOffset":17264,"byteLength":576,"target":34963},{"buffer":0,"byteOffset":17840,"byteLength":624,"target":34962,"byteStride":12},{"buffer":0,"byteOffset":18464,"byteLength":624,"target":34962,"byteStride":12},{"buffer":0,"byteOffset":19088,"byteLength":416,"target":34962,"byteStride":8},{"buffer":0,"byteOffset":19504,"byteLength":192,"target":34963},{"buffer":0,"byteOffset":19696,"byteLength":624,"target":34962,"byteStride":12},{"buffer":0,"byteOffset":20320,"byteLength":624,"target":34962,"byteStride":12},{"buffer":0,"byteOffset":20944,"byteLength":416,"target":34962,"byteStride":8},{"buffer":0,"byteOffset":21360,"byteLength":192,"target":34963}],"buffers":[{"byteLength":21552,"uri":"data:application/octet-stream;base64,"}],"accessors":[{"bufferView":0,"componentType":5126,"count":294,"max":[0.1599999964237213,0.23499999940395355,0.1599999964237213],"min":[-0.1599999964237213,-0.23499999940395355,-0.1599999964237213],"type":"VEC3"},{"bufferView":1,"componentType":5126,"count":294,"max":[1,1,1],"min":[-1,-1,-1],"type":"VEC3"},{"bufferView":2,"componentType":5126,"count":294,"max":[1.024999976158142,1],"min":[-0.02500000037252903,0],"type":"VEC2"},{"bufferView":3,"componentType":5123,"count":1560,"max":[293],"min":[0],"type":"SCALAR"},{"bufferView":4,"componentType":5126,"count":148,"max":[0.20000000298023224,0.027499999850988388,0.20000000298023224],"min":[-0.20000000298023224,-0.027499999850988388,-0.20000000298023224],"type":"VEC3"},{"bufferView":5,"componentType":5126,"count":148,"max":[1,1,1],"min":[-1,-1,-1],"type":"VEC3"},{"bufferView":6,"componentType":5126,"count":148,"max":[1,1],"min":[0,0],"type":"VEC2"},{"bufferView":7,"componentType":5123,"count":288,"max":[147],"min":[0],"type":"SCALAR"},{"bufferView":8,"componentType":5126,"count":52,"max":[0.017999999225139618,0.25,0.017999999225139618],"min":[-0.017999999225139618,-0.25,-0.017999999225139618],"type":"VEC3"},{"bufferView":9,"componentType":5126,"count":52,"max":[1,1,1],"min":[-1,-1,-1],"type":"VEC3"},{"bufferView":10,"componentType":5126,"count":52,"max":[1,1],"min":[0,0],"type":"VEC2"},{"bufferView":11,"componentType":5123,"count":96,"max":[51],"min":[0],"type":"SCALAR"},{"bufferView":12,"componentType":5126,"count":52,"max":[0.017999999225139618,0.20000000298023224,0.017999999225139618],"min":[-0.017999999225139618,-0.20000000298023224,-0.017999999225139618],"type":"VEC3"},{"bufferView":13,"componentType":5126,"count":52,"max":[1,1,1],"min":[-1,-1,-1],"type":"VEC3"},{"bufferView":14,"componentType":5126,"count":52,"max":[1,1],"min":[0,0],"type":"VEC2"},{"bufferView":15,"componentType":5123,"count":96,"max":[51],"min":[0],"type":"SCALAR"}],"materials":[{"pbrMetallicRoughness":{"baseColorFactor":[0.9386857284565036,0.16513219449147767,0.16513219449147767,1],"metallicFactor":0,"roughnessFactor":0.24},"emissiveFactor":[0.8631572134510892,0.057805430183792694,0.057805430183792694],"extensions":{"KHR_materials_clearcoat":{"clearcoatFactor":1,"clearcoatRoughnessFactor":0.15},"KHR_materials_emissive_strength":{"emissiveStrength":0.18}}},{"pbrMetallicRoughness":{"baseColorFactor":[0.48514994004665124,0.011612245176281512,0.011612245176281512,1],"metallicFactor":0,"roughnessFactor":0.35}},{"pbrMetallicRoughness":{"baseColorFactor":[0.4735314961384573,0.5647115056965487,0.6866853124288864,1],"metallicFactor":0.65,"roughnessFactor":0.3}},{"pbrMetallicRoughness":{"baseColorFactor":[0.4735314961384573,0.5647115056965487,0.6866853124288864,1],"metallicFactor":0.65,"roughnessFactor":0.3}}],"meshes":[{"primitives":[{"mode":4,"attributes":{"POSITION":0,"NORMAL":1,"TEXCOORD_0":2},"indices":3,"material":0}]},{"primitives":[{"mode":4,"attributes":{"POSITION":4,"NORMAL":5,"TEXCOORD_0":6},"indices":7,"material":1}]},{"primitives":[{"mode":4,"attributes":{"POSITION":8,"NORMAL":9,"TEXCOORD_0":10},"indices":11,"material":2}]},{"primitives":[{"mode":4,"attributes":{"POSITION":12,"NORMAL":13,"TEXCOORD_0":14},"indices":15,"material":3}]}],"extensionsUsed":["KHR_materials_clearcoat","KHR_materials_emissive_strength"]}